<?xml version="1.0" encoding="utf-8"?>
<!-- Generator: Adobe Illustrator 24.3.0, SVG Export Plug-In . SVG Version: 6.00 Build 0)  -->
<svg version="1.1" id="Layer_1" xmlns="http://www.w3.org/2000/svg" xmlns:xlink="http://www.w3.org/1999/xlink" x="0px" y="0px"
	 width="500px" height="500px" viewBox="0 0 500 500" style="enable-background:new 0 0 500 500;" xml:space="preserve">
<style type="text/css">
	.st0{fill:#FF4800;}
	.st1{fill-rule:evenodd;clip-rule:evenodd;fill:#FFFFFF;}
	.st2{fill:#FFFFFF;}
	.st3{fill-rule:evenodd;clip-rule:evenodd;fill:#FDAB6A;}
	.st4{fill-rule:evenodd;clip-rule:evenodd;fill:#B0BEC5;}
	.st5{fill-rule:evenodd;clip-rule:evenodd;fill:#90A4AE;}
	.st6{fill-rule:evenodd;clip-rule:evenodd;fill:#CFD8DC;}
	.st7{fill-rule:evenodd;clip-rule:evenodd;fill:#002F49;}
	.st8{display:none;fill-rule:evenodd;clip-rule:evenodd;fill:#FAB796;}
	.st9{fill-rule:evenodd;clip-rule:evenodd;fill:#B2EBF2;}
	.st10{fill-rule:evenodd;clip-rule:evenodd;fill:#004360;}
	.st11{fill-rule:evenodd;clip-rule:evenodd;fill:#FAB796;}
	.st12{fill-rule:evenodd;clip-rule:evenodd;fill:#FF8A00;}
	.st13{fill-rule:evenodd;clip-rule:evenodd;fill:#A5A5A4;}
	.st14{fill-rule:evenodd;clip-rule:evenodd;fill:#1D1D1B;}
	.st15{fill-rule:evenodd;clip-rule:evenodd;fill:#9D4A16;}
	.st16{fill-rule:evenodd;clip-rule:evenodd;fill:#FDF4A9;}
	.st17{fill-rule:evenodd;clip-rule:evenodd;fill:#2A341A;}
	.st18{fill-rule:evenodd;clip-rule:evenodd;fill:#3D3E19;}
	.st19{fill-rule:evenodd;clip-rule:evenodd;fill:#54190C;}
</style>
<path class="st0" d="M387.5,36.9c46.5,7.9,96,29.2,102.3,66.7c6.7,37.5-29.6,90.7-28.5,145.1c1.1,54,39.4,108.7,38.6,156.3
	s-40.5,88.1-87.7,84.7c-47.6-3-102.3-50.2-157.1-51c-54.4-0.7-108.3,44.2-145.5,41.6S52,427.6,31.4,380.7S-9.9,291.1,5.1,256.6
	c14.6-34.5,65.2-60.4,93-94.5s33-76.5,55.5-98.2s61.9-22.5,103.1-25.9C297.9,34.7,341.4,29.1,387.5,36.9z"/>
<g id="Background">
	<path id="svg_37_1_" class="st1" d="M185.5,331.2c0,0.7-0.7,1.5-1.5,1.5c-0.7,0-1.5-0.7-1.5-1.5c0-0.8,0.7-1.5,1.5-1.5
		S185.5,330.3,185.5,331.2 M195.3,330.8c0,0.5-0.5,1.1-1.1,1.1s-1.1-0.5-1.1-1.1l0,0c0-0.5,0.5-1.1,1.1-1.1S195.3,330.3,195.3,330.8
		 M205.7,330.8c0,0.5-0.5,1.1-1.1,1.1s-1.1-0.5-1.1-1.1l0,0c0-0.5,0.5-1.1,1.1-1.1S205.7,330.3,205.7,330.8 M215.4,330.8
		c0,0.5-0.5,1.1-1.1,1.1s-1.1-0.5-1.1-1.1s0.5-1.1,1.1-1.1S215.4,330.3,215.4,330.8 M225.3,330.8c0,0.5-0.5,1.1-1.1,1.3
		c-0.5,0-1.1-0.5-1.3-1.1l0,0c0-0.5,0.5-1.1,1.3-1.1C224.7,329.7,225.3,330.3,225.3,330.8 M235.7,330.8L235.7,330.8 M244.8,330.6
		c0,0.5-0.4,0.9-0.9,0.9s-0.9-0.4-0.9-0.9s0.4-0.9,0.9-0.9S244.8,330.1,244.8,330.6 M254.1,330.6L254.1,330.6 M264.5,330.6
		c0,0.5-0.4,0.9-0.9,0.9s-0.9-0.4-0.7-0.9c0-0.4,0.4-0.7,0.7-0.7C264.1,329.7,264.5,330.1,264.5,330.6 M273.6,330.8
		c0,0.4-0.2,0.5-0.5,0.5s-0.5-0.2-0.5-0.5l0,0c0-0.4,0.2-0.5,0.5-0.5S273.6,330.5,273.6,330.8 M284,330.8c0,0.4-0.2,0.5-0.5,0.5l0,0
		c-0.4,0-0.5-0.2-0.5-0.5c0-0.4,0.2-0.5,0.5-0.5S284,330.5,284,330.8L284,330.8 M293.8,330.6c0,0.2-0.2,0.4-0.2,0.4
		c-0.2,0-0.4-0.2-0.4-0.2l0,0c0-0.2,0.2-0.4,0.4-0.2C293.7,330.3,293.8,330.5,293.8,330.6 M185.5,341c0,0.7-0.5,1.5-1.5,1.5
		c-0.7,0-1.5-0.5-1.5-1.5c0,0,0,0,0-0.2c0-0.7,0.7-1.5,1.5-1.5C184.8,339.6,185.5,340.1,185.5,341 M195.3,341.2
		c0,0.5-0.5,1.1-1.1,1.1s-1.1-0.5-1.1-1.1l0,0c0-0.5,0.5-1.1,1.1-1.1S195.3,340.7,195.3,341.2 M205.7,341.2c0,0.5-0.5,1.1-1.1,1.1
		s-1.1-0.5-1.1-1.1c0-0.5,0.5-1.1,1.3-1.1C205.2,340.1,205.6,340.7,205.7,341.2 M215.4,341.2L215.4,341.2 M225.3,341.2
		c0,0.5-0.5,1.1-1.1,1.1s-1.1-0.5-1.1-1.1l0,0c0-0.5,0.5-1.1,1.1-1.1S225.3,340.7,225.3,341.2 M235.7,341.2c0,0.5-0.5,1.1-1.1,1.3
		c-0.5,0-1.1-0.5-1.3-1.1l0,0c0-0.5,0.5-1.1,1.3-1.1C235.1,340.1,235.7,340.7,235.7,341.2 M244.8,341.6c0,0.5-0.4,0.9-0.9,0.9
		s-0.9-0.4-0.9-0.9l0,0c0-0.5,0.4-0.9,0.9-0.9S244.8,341,244.8,341.6 M254.1,341.6c0,0.5-0.4,0.9-0.9,0.9s-0.9-0.4-0.9-0.9
		s0.4-0.9,0.9-0.9S254.1,341,254.1,341.6L254.1,341.6 M264.5,341.6c0,0.5-0.4,0.9-0.7,0.9c-0.5,0-0.9-0.4-0.9-0.7c0,0,0,0,0-0.2
		c0-0.5,0.4-0.9,0.9-0.7C264.1,340.7,264.5,341,264.5,341.6 M273.6,341.2c0,0.4-0.2,0.5-0.5,0.5s-0.5-0.2-0.5-0.5l0,0
		c0-0.4,0.2-0.5,0.5-0.5S273.6,340.9,273.6,341.2 M284,341.2c0,0.4-0.2,0.5-0.5,0.5s-0.5-0.2-0.5-0.5l0,0c0-0.4,0.2-0.5,0.5-0.5
		S284,340.9,284,341.2 M293.8,341.6c0,0.2-0.2,0.4-0.4,0.4s-0.4-0.2-0.4-0.4c0-0.2,0.2-0.4,0.4-0.4S293.8,341.4,293.8,341.6
		 M185.5,352c0,0.7-0.7,1.5-1.5,1.5c-0.7,0-1.5-0.7-1.5-1.5c0-0.7,0.7-1.5,1.5-1.5S185.5,351.1,185.5,352 M195.3,351.6
		c0,0.5-0.5,1.1-1.1,1.1s-1.1-0.5-1.1-1.1c0-0.5,0.5-1.1,1.1-1.1S195.3,351.1,195.3,351.6 M205.7,351.6c0,0.5-0.5,1.1-1.1,1.1
		s-1.1-0.5-1.1-1.1s0.5-1.1,1.1-1.1S205.7,351.1,205.7,351.6 M215.4,351.6L215.4,351.6 M225.3,352.2c0,0.5-0.5,1.1-1.1,1.1
		s-1.1-0.5-1.1-1.1s0.5-1.1,1.1-1.1l0,0C224.7,351.1,225.3,351.6,225.3,352.2 M235.7,352.2c0,0.5-0.5,1.1-1.1,1.3
		c-0.6,0.2-1.1-0.5-1.3-1.1l0,0c0-0.5,0.5-1.1,1.3-1.1C235.1,351.1,235.7,351.6,235.7,352.2 M244.8,352c0,0.5-0.4,0.9-0.9,0.9
		s-0.9-0.4-0.9-0.9s0.4-0.9,0.9-0.9l0,0C244.4,351.1,244.8,351.4,244.8,352 M254.1,352c0,0.5-0.4,0.9-0.9,0.9s-0.9-0.4-0.9-0.9
		s0.4-0.9,0.9-0.9S254.1,351.4,254.1,352L254.1,352 M264.5,352c0,0.5-0.4,0.9-0.7,0.9c-0.5,0-0.9-0.4-0.9-0.7c0,0,0,0,0-0.2
		c0-0.5,0.4-0.9,0.9-0.7C264.1,351.1,264.5,351.4,264.5,352 M273.6,352.2c0,0.4-0.2,0.5-0.5,0.5s-0.5-0.2-0.5-0.5
		c0-0.4,0.2-0.5,0.5-0.5S273.6,351.8,273.6,352.2L273.6,352.2 M284,352.2c0,0.4-0.2,0.5-0.5,0.5s-0.5-0.2-0.5-0.5l0,0
		c0-0.4,0.2-0.5,0.5-0.5S284,351.8,284,352.2 M293.8,352c0,0.2-0.2,0.4-0.4,0.4s-0.4-0.2-0.4-0.4c0-0.2,0.2-0.4,0.2-0.4
		C293.7,351.6,293.8,351.8,293.8,352C293.8,351.8,293.8,352,293.8,352 M185.5,361.7c0,0.7-0.5,1.5-1.5,1.5c-0.7,0-1.5-0.5-1.5-1.5
		c0,0,0,0,0-0.2c0-0.7,0.7-1.5,1.5-1.5C184.8,360.4,185.5,360.9,185.5,361.7 M195.3,361.5c0,0.5-0.5,1.1-1.1,1.1s-1.1-0.5-1.1-1.1
		l0,0c0-0.5,0.5-1.1,1.1-1.1C194.8,360.2,195.3,360.7,195.3,361.5 M205.7,361.5c0,0.5-0.5,1.1-1.1,1.1s-1.1-0.5-1.1-1.1
		s0.5-1.1,1.3-1.1C205.2,360.4,205.6,360.7,205.7,361.5 M215.4,361.5c0,0.5-0.5,1.1-1.1,1.3c-0.6,0.2-1.1-0.5-1.3-1.1l0,0
		c0-0.5,0.5-1.1,1.3-1.1C214.9,360.4,215.4,360.9,215.4,361.5 M225.3,361.5c0,0.5-0.5,1.1-1.1,1.3c-0.5,0-1.1-0.5-1.3-1.1l0,0
		c0-0.5,0.5-1.1,1.3-1.1C224.7,360.4,225.3,360.7,225.3,361.5 M235.7,361.5c0,0.5-0.5,1.1-1.1,1.3c-0.5,0-1.1-0.5-1.3-1.1l0,0
		c0-0.5,0.5-1.1,1.3-1.1C235.1,360.4,235.7,360.9,235.7,361.5 M244.8,361.1c0,0.5-0.4,0.9-0.9,0.9s-0.9-0.4-0.9-0.9s0.4-0.9,0.9-0.9
		S244.8,360.7,244.8,361.1 M254.1,361.1c0,0.5-0.4,0.9-0.9,0.9s-0.9-0.4-0.9-0.9s0.4-0.9,0.9-0.9S254.1,360.7,254.1,361.1
		 M264.5,361.1c0,0.5-0.4,0.9-0.7,0.9c-0.5,0-0.9-0.4-0.9-0.7c0,0,0,0,0-0.2c0-0.5,0.4-0.9,0.9-0.7
		C264.1,360.4,264.5,360.7,264.5,361.1 M273.6,361.5c0,0.4-0.2,0.5-0.5,0.5s-0.5-0.2-0.5-0.5l0,0c0-0.4,0.2-0.5,0.5-0.5
		S273.6,361.1,273.6,361.5 M284,361.5c0,0.4-0.2,0.5-0.5,0.5s-0.5-0.2-0.5-0.5l0,0c0-0.4,0.2-0.5,0.5-0.5S284,361.1,284,361.5
		 M293.8,361.1c0,0.2-0.2,0.4-0.2,0.4c-0.2,0-0.4-0.2-0.4-0.2l0,0c0-0.2,0.2-0.4,0.4-0.2C293.7,360.9,293.8,360.9,293.8,361.1
		 M185.5,372.1c0,0.7-0.5,1.5-1.5,1.5c-0.7,0-1.5-0.5-1.5-1.5c0,0,0,0,0-0.2c0-0.7,0.7-1.5,1.5-1.5
		C184.8,370.8,185.5,371.3,185.5,372.1 M195.3,371.9c0,0.5-0.5,1.1-1.1,1.1s-1.1-0.5-1.1-1.1s0.5-1.1,1.1-1.1
		C194.8,370.6,195.3,371.1,195.3,371.9 M205.7,371.9c0,0.5-0.5,1.1-1.1,1.1s-1.1-0.5-1.1-1.1s0.5-1.1,1.1-1.1
		C205.2,370.6,205.7,371.1,205.7,371.9 M215.4,371.9L215.4,371.9 M225.3,371.9c0,0.5-0.5,1.1-1.1,1.1s-1.1-0.5-1.1-1.1
		s0.5-1.1,1.1-1.1l0,0C224.7,370.6,225.3,371.1,225.3,371.9 M235.7,371.9c0,0.5-0.5,1.1-1.1,1.3c-0.5,0-1.1-0.5-1.3-1.1l0,0
		c0-0.5,0.5-1.1,1.3-1.1C235.1,370.8,235.7,371.1,235.7,371.9 M244.8,372.1c0,0.5-0.4,0.9-0.9,0.9s-0.9-0.4-0.9-0.9s0.4-0.9,0.9-0.9
		l0,0C244.4,371.3,244.8,371.7,244.8,372.1 M254.1,372.1c0,0.5-0.4,0.9-0.9,0.9s-0.9-0.4-0.9-0.9l0,0c0-0.5,0.4-0.9,0.9-0.9
		C253.7,371.3,254.1,371.7,254.1,372.1 M264.5,372.1c0,0.5-0.4,0.9-0.7,0.9c-0.5,0-0.9-0.4-0.9-0.7c0,0,0,0,0-0.2
		c0-0.5,0.4-0.9,0.9-0.7C264.1,371.3,264.5,371.7,264.5,372.1 M273.6,371.9c0,0.4-0.2,0.5-0.5,0.5s-0.5-0.2-0.5-0.5
		c0-0.4,0.2-0.5,0.5-0.5S273.6,371.5,273.6,371.9L273.6,371.9 M284,371.9c0,0.4-0.2,0.5-0.5,0.5s-0.5-0.2-0.5-0.5l0,0
		c0-0.4,0.2-0.5,0.5-0.5S284,371.5,284,371.9 M293.8,372.1c0,0.2-0.2,0.4-0.4,0.4s-0.4-0.2-0.4-0.4l0,0c0-0.2,0.2-0.4,0.2-0.4
		C293.7,371.9,293.8,371.9,293.8,372.1L293.8,372.1 M185.5,382.5c0,0.7-0.5,1.5-1.5,1.5c-0.7,0-1.5-0.5-1.5-1.5c0,0,0,0,0-0.2
		c0-0.7,0.7-1.5,1.5-1.5C184.8,381.2,185.5,381.7,185.5,382.5 M195.3,382.3c0,0.5-0.5,1.1-1.1,1.1s-1.1-0.5-1.1-1.1
		c0-0.5,0.5-1.1,1.1-1.1C194.8,381,195.3,381.5,195.3,382.3L195.3,382.3 M205.7,382.3c0,0.5-0.5,1.1-1.1,1.1s-1.1-0.5-1.1-1.1
		c0-0.5,0.5-1.1,1.1-1.1C205.2,381,205.7,381.5,205.7,382.3 M215.4,382.3c0,0.5-0.5,1.1-1.1,1.3c-0.5,0-1.1-0.5-1.3-1.1l0,0
		c0-0.5,0.5-1.1,1.3-1.1C214.9,381.2,215.4,381.5,215.4,382.3 M225.3,382.8c0,0.5-0.5,1.1-1.1,1.3c-0.5,0-1.1-0.5-1.3-1.1l0,0
		c0-0.5,0.5-1.1,1.3-1.1C224.7,381.7,225.3,382.1,225.3,382.8 M235.7,382.8c0,0.5-0.5,1.1-1.1,1.3c-0.5,0-1.1-0.5-1.3-1.1l0,0
		c0-0.5,0.5-1.1,1.3-1.1C235.1,381.7,235.7,382.1,235.7,382.8 M244.8,382.5c0,0.5-0.4,0.9-0.9,0.9s-0.9-0.4-0.9-0.9l0,0
		c0-0.5,0.4-0.9,0.9-0.9S244.8,382.1,244.8,382.5 M254.1,382.5L254.1,382.5 M264.5,382.5c0,0.5-0.4,0.9-0.7,0.9
		c-0.5,0-0.9-0.4-0.9-0.7c0,0,0,0,0-0.2c0-0.5,0.4-0.9,0.9-0.7C264.1,381.7,264.5,382.1,264.5,382.5 M273.6,382.8
		c0,0.4-0.2,0.5-0.5,0.5s-0.5-0.2-0.5-0.5l0,0c0-0.4,0.2-0.5,0.5-0.5S273.6,382.5,273.6,382.8 M284,382.8c0,0.4-0.2,0.5-0.5,0.5
		s-0.5-0.2-0.5-0.5l0,0c0-0.4,0.2-0.5,0.5-0.5S284,382.5,284,382.8 M293.8,382.5c0,0.2-0.2,0.4-0.2,0.4c-0.2,0-0.4-0.2-0.4-0.2l0,0
		c0-0.2,0.2-0.4,0.4-0.2C293.7,382.3,293.8,382.3,293.8,382.5 M185.5,392.3c0,0.7-0.5,1.5-1.5,1.5c-0.7,0-1.5-0.5-1.5-1.5
		c0,0,0,0,0-0.2c0-0.7,0.7-1.5,1.5-1.5C184.8,390.8,185.5,391.6,185.5,392.3 M195.3,392.7c0,0.5-0.5,1.1-1.1,1.1s-1.1-0.5-1.1-1.1
		s0.5-1.1,1.1-1.1C194.8,391.4,195.3,391.9,195.3,392.7 M205.7,392.7c0,0.5-0.5,1.1-1.1,1.1s-1.1-0.5-1.1-1.1s0.5-1.1,1.3-1.1
		C205.2,391.6,205.6,391.9,205.7,392.7 M215.4,392.7L215.4,392.7 M225.3,391.9c0,0.5-0.5,1.1-1.1,1.1s-1.1-0.5-1.1-1.1
		s0.5-1.1,1.1-1.1l0,0C224.7,390.8,225.3,391.4,225.3,391.9 M235.7,391.9c0,0.5-0.5,1.1-1.1,1.3c-0.5,0-1.1-0.5-1.3-1.1l0,0
		c0-0.5,0.5-1.1,1.3-1.1C235.1,390.8,235.7,391.4,235.7,391.9 M244.8,392.3c0,0.5-0.4,0.9-0.9,0.9s-0.9-0.4-0.9-0.9s0.4-0.9,0.9-0.9
		S244.8,391.8,244.8,392.3L244.8,392.3 M254.1,392.3L254.1,392.3 M264.5,392.3c0,0.5-0.4,0.9-0.7,0.9c-0.5,0-0.9-0.4-0.9-0.7
		c0,0,0,0,0-0.2c0-0.5,0.4-0.9,0.9-0.7C264.1,391.6,264.5,391.9,264.5,392.3 M273.6,391.9c0,0.4-0.2,0.5-0.5,0.5s-0.5-0.4-0.5-0.5
		c0-0.4,0.2-0.5,0.5-0.5S273.6,391.8,273.6,391.9 M284,391.9c0,0.4-0.2,0.5-0.5,0.5s-0.5-0.2-0.5-0.5l0,0c0-0.4,0.2-0.5,0.5-0.5
		S284,391.8,284,391.9 M293.8,392.3c0,0.2-0.2,0.4-0.4,0.4s-0.4-0.2-0.4-0.4c0-0.2,0.2-0.4,0.4-0.4S293.8,392.1,293.8,392.3
		L293.8,392.3 M74.7,220.1l4.6-6.4l4.6,6.4H74.7 M74.7,210.2l4.6-6.4l4.6,6.4H74.7 M74.7,200l4.6-6.4l4.6,6.4H74.7"/>
	<path id="svg_38_1_" class="st1" d="M427.7,280.4h-27.4c-0.5,0-1.1-0.5-1.1-1.1c0-0.5,0.5-1.1,1.1-1.1h27.4c0.5,0,1.1,0.5,1.1,1.1
		S428.2,280.4,427.7,280.4 M413.8,286.1h-13.5c-0.5,0-1.1-0.5-1.1-1.1s0.4-1.1,1.1-1.1h13.5c0.5,0,1.1,0.5,1.1,1.1
		C414.9,285.5,414.4,286.1,413.8,286.1 M192,140.1l-5.7-5.7l-5.7,5.7l-5.7-5.7l-4.9,4.9c-0.4,0.4-1.1,0.4-1.5,0l0,0
		c-0.4-0.4-0.4-1.1,0-1.5l6.4-6.4l5.7,5.7l5.7-5.7l5.7,5.7l4.9-4.9c0.4-0.4,1.1-0.4,1.5,0l0,0c0.4,0.4,0.4,1.1,0,1.5L192,140.1
		 M192,151.1l-5.7-5.7l-5.7,5.7l-5.7-5.7l-4.9,4.9c-0.4,0.4-1.1,0.4-1.5,0l0,0c-0.4-0.4-0.4-1.1,0-1.5l6.4-6.4l5.7,5.7l5.7-5.7
		l5.7,5.7l4.9-4.9c0.4-0.4,1.1-0.4,1.5,0l0,0c0.4,0.4,0.4,1.1,0,1.5L192,151.1 M40.2,227.5c0,0.7-0.5,1.5-1.5,1.5
		c-0.7,0-1.5-0.5-1.5-1.5v-0.2c0-0.7,0.7-1.5,1.5-1.5C39.5,226.2,40.2,226.8,40.2,227.5 M126.1,206.9c0,2-1.6,3.8-3.8,3.8
		c-2,0-3.8-1.6-3.8-3.8l0,0c0-2,1.6-3.8,3.8-3.8S126.1,204.7,126.1,206.9 M202.2,167.9c0,0.9-0.7,1.6-1.6,1.6
		c-0.9,0-1.6-0.7-1.6-1.6c0-0.9,0.7-1.6,1.6-1.6C201.5,166.2,202.2,167,202.2,167.9 M297.8,204.9c0,1.6-1.3,2.9-2.9,2.9
		s-2.9-1.3-2.9-2.9s1.3-2.9,2.9-2.9S297.8,203.3,297.8,204.9 M329,131.9c0,2.4-2,4.4-4.4,4.4s-4.4-2-4.4-4.4l0,0
		c0-2.4,2-4.4,4.4-4.4S329,129.4,329,131.9 M345.2,153.8c0,0.7-0.5,1.5-1.5,1.5c-0.7,0-1.5-0.5-1.5-1.5c0,0,0,0,0-0.2
		c0-0.7,0.7-1.5,1.5-1.5C344.5,152.4,345,153.1,345.2,153.8 M470.2,173.3c0,0.7-0.7,1.5-1.5,1.5c-0.7,0-1.5-0.7-1.5-1.5l0,0
		c0-0.7,0.7-1.5,1.5-1.5C469.6,171.9,470.2,172.6,470.2,173.3 M258.7,95.8c0,0.5-0.5,1.1-1.1,1.3c-0.5,0-1.1-0.5-1.3-1.1l0,0
		c0-0.5,0.5-1.1,1.3-1.1C258.2,94.7,258.6,95.3,258.7,95.8 M535.3,349.6L535.3,349.6 M50.6,235.4c0,1.8-1.5,3.5-3.5,3.5
		c-1.8,0-3.5-1.5-3.5-3.5c0-1.8,1.5-3.5,3.5-3.5C48.9,231.9,50.6,233.5,50.6,235.4L50.6,235.4 M170.4,257.3L170.4,257.3
		 M177.9,257.3c0,0.4-0.2,0.5-0.5,0.5s-0.5-0.2-0.5-0.5c0-0.3,0.4-0.5,0.5-0.5C177.7,256.7,177.9,257.1,177.9,257.3 M186,257.3
		c0,0.4-0.2,0.5-0.5,0.5s-0.5-0.2-0.5-0.5l0,0c0-0.4,0.4-0.5,0.5-0.5C185.8,256.7,186,257.1,186,257.3 M170.4,265.5
		c0,0.4-0.2,0.5-0.5,0.5s-0.5-0.2-0.5-0.5c0-0.4,0.2-0.5,0.5-0.5C170.3,264.7,170.4,265.1,170.4,265.5 M177.9,265.5
		c0,0.4-0.2,0.5-0.5,0.5s-0.5-0.2-0.5-0.5c0-0.4,0.2-0.5,0.5-0.5C177.7,264.7,177.9,265.1,177.9,265.5L177.9,265.5 M186,265.5
		c0,0.4-0.2,0.5-0.5,0.5s-0.5-0.2-0.5-0.5c0-0.4,0.2-0.5,0.5-0.5C185.8,264.7,186,265.1,186,265.5L186,265.5 M170.4,271.7
		c0,0.4-0.2,0.5-0.5,0.5s-0.5-0.2-0.5-0.5c0-0.4,0.4-0.5,0.5-0.5C170.3,271.1,170.4,271.5,170.4,271.7 M177.9,271.7
		c0,0.4-0.2,0.5-0.5,0.5s-0.5-0.2-0.5-0.5c0-0.4,0.4-0.5,0.5-0.5C177.7,271.1,177.9,271.5,177.9,271.7 M186,271.7
		c0,0.4-0.2,0.5-0.5,0.5s-0.5-0.2-0.5-0.5c0-0.4,0.2-0.5,0.5-0.5S186,271.5,186,271.7 M172.3,247.4l7.5-9.9l7.5,9.9H172.3"/>
	<path id="svg_at" class="st2" d="M305,324.2c-0.1,0.3-0.4,0.4-0.7,0.4s-0.6-0.1-0.9-0.3l-14-13.1c-0.3-0.3-0.4-0.6-0.4-0.9
		c0-0.3,0.1-0.6,0.4-0.9l14-13.1c0.3-0.1,0.6-0.3,0.9-0.3s0.6,0.1,0.7,0.4l4.2,4.5c0.3,0.3,0.4,0.6,0.3,0.9c0,0.3-0.1,0.6-0.3,0.7
		l-8.8,7.8l8.8,7.8c0.1,0.1,0.3,0.4,0.3,0.7s-0.1,0.6-0.3,0.9L305,324.2z M315.9,335.1c0.3,0.1,0.6,0.1,0.9,0s0.4-0.4,0.6-0.7
		l13.1-45.5c0.1-0.3,0.1-0.6,0-0.9c-0.1-0.3-0.4-0.4-0.7-0.6l-5.9-1.7c-0.3,0-0.6,0-0.9,0.1c-0.3,0.1-0.4,0.4-0.6,0.7L309.3,332
		c-0.1,0.3-0.1,0.6,0,0.9c0.1,0.3,0.4,0.4,0.7,0.6L315.9,335.1L315.9,335.1z M336.6,324.4c-0.3,0.1-0.6,0.3-0.9,0.3
		s-0.6-0.1-0.7-0.4l-4.2-4.5c-0.3-0.3-0.4-0.6-0.3-0.9c0-0.3,0.1-0.6,0.3-0.7l8.8-7.8l-8.8-7.8c-0.1-0.1-0.3-0.4-0.3-0.7
		c0-0.3,0.1-0.6,0.3-0.9l4.2-4.5c0.3-0.3,0.6-0.4,0.9-0.4s0.6,0.1,0.9,0.3l14,13.1c0.3,0.3,0.4,0.6,0.4,0.9c0,0.3-0.1,0.6-0.4,0.9
		L336.6,324.4z"/>
	<path id="svg_branch" class="st2" d="M406.5,131.7c0,2.2-0.7,4.4-2,6.3c-1.3,1.9-3,3.2-5.2,3.9c0,3.7-1.1,6.7-3,9.1
		c-1.7,2-4.1,3.5-7.2,4.4c-1.9,0.6-4.6,0.9-8.5,1.3h-0.2c-2.2,0.2-3.9,0.4-4.8,0.6c-1.7,0.4-3,0.7-3.9,1.1c-0.9,0.4-1.5,0.9-2,1.7
		c2,0.7,3.7,2,5,3.9c1.3,1.9,1.9,3.9,1.9,6.1c0,3-1.1,5.4-3.2,7.4c-2,2-4.6,3.2-7.4,3.2s-5.4-1.1-7.4-3.2s-3.2-4.6-3.2-7.4
		c0-2.4,0.7-4.4,2-6.3c1.3-1.9,3.2-3.2,5.4-3.7v-26.5c-2.2-0.6-4.1-1.9-5.4-3.7c-1.3-1.9-2-3.9-2-6.3c0-3,1.1-5.4,3.2-7.4
		c2-2,4.6-3.2,7.4-3.2s5.4,1.1,7.4,3.2c2,2,3.2,4.6,3.2,7.4c0,2.4-0.7,4.4-2,6.3c-1.3,1.9-3.2,3.2-5.4,3.7v19.1
		c1.5-0.6,3.2-1.1,5.2-1.5c1.3-0.2,3.2-0.6,5.6-0.7c3.2-0.2,5.4-0.6,6.9-0.7c2-0.6,3.7-1.3,4.6-2.6c0.9-1.1,1.5-2.8,1.5-5
		c-2.2-0.7-4.1-2-5.6-3.9c-1.5-1.9-2-3.9-2-6.3c0-3,1.1-5.4,3.2-7.4c2-2,4.6-3.2,7.4-3.2c2.8,0,5.4,1.1,7.4,3.2
		C405.4,126.3,406.5,128.9,406.5,131.7L406.5,131.7z M366.1,121.1c-0.6,0-1.1,0.2-1.5,0.6c-0.4,0.4-0.6,0.9-0.6,1.5s0.2,1.1,0.6,1.5
		c0.4,0.4,0.9,0.6,1.5,0.6s1.1-0.2,1.5-0.6c0.4-0.4,0.6-0.9,0.6-1.5s-0.2-1.1-0.6-1.5C367.2,121.3,366.7,121.1,366.1,121.1z
		 M366.1,172.1c0.6,0,1.1-0.2,1.5-0.6c0.4-0.4,0.6-0.9,0.6-1.5c0-0.6-0.2-1.1-0.6-1.5c-0.4-0.4-0.9-0.6-1.5-0.6s-1.1,0.2-1.5,0.6
		c-0.4,0.4-0.6,0.9-0.6,1.5c0,0.6,0.2,1.1,0.6,1.5C365,171.9,365.6,172.1,366.1,172.1z M395.8,129.6c-0.6,0-1.1,0.2-1.5,0.6
		c-0.4,0.4-0.6,0.9-0.6,1.5c0,0.6,0.2,1.1,0.6,1.5c0.4,0.4,0.9,0.6,1.5,0.6c0.6,0,1.1-0.2,1.5-0.6c0.4-0.4,0.6-0.9,0.6-1.5
		c0-0.6-0.2-1.1-0.6-1.5S396.5,129.6,395.8,129.6z"/>
	<path id="svg_code" class="st2" d="M225.3,177.3c7.8,0,15.5,3.3,19.6,9.6c6.3,9.7,3.4,24.9-10.7,24.4c-3.4,0-5.5,0-6.6-3.2
		c-5.6,7-16.2,3-15.8-6.2c0-5.1,2.2-9.6,6.3-12.2c3.3-2.2,9.5-2.7,11.8,0.3c0-0.5,0.5-1.1,1.2-1.1h4.1c1.5,0,2.5,1.2,2.2,2.6
		c-0.1,1.4-2.7,12.1-2.3,13c0.1,0.5,0.7,0.8,1.4,0.8c1.6-0.1,2.9-1.1,4-2.6c2.3-3.8,1.5-9.6-1-13c-6.7-9.6-23.6-8.8-29.2,1.8
		c-6.7,10.8,1.9,25.6,14.7,25.3c3.3,0,6.3-0.8,9-2.6c1-0.5,2.2-0.4,2.9,0.4l1,1.1c0.8,1.1,0.5,2.6-0.5,3.3c-7,4.7-16.6,4.9-23.8,0.5
		C194,208,202.2,177.7,225.3,177.3L225.3,177.3z M223.4,205.2c1.8,0,3.6-1.4,4.5-3c1-1.8,1.2-4.8,0-6.3c-1.5-1.8-4.5-1.1-6,0.7
		C219.6,198.9,218.9,205.2,223.4,205.2z"/>
</g>
<g>
	<path id="floor" class="st3" d="M465.9,422.7c0,4.8-96.7,8.7-215.9,8.7s-215.9-3.9-215.9-8.7S130.8,414,250,414
		S465.9,417.8,465.9,422.7"/>
	<g id="white_guy">
		<path id="svg_83_2_" class="st4" d="M102.3,312.9c0,0,1.2-48.7-1.5-69.9c-1.2-9.4,60.8-4.8,60.8-4.8l5.8,76.3L102.3,312.9"/>
		<path id="svg_84_2_" class="st5" d="M106.1,312.9c0,0,1.2-48.7-1.5-69.9c-1.2-9.4,60.8-4.8,60.8-4.8l5.8,76.3L106.1,312.9"/>
		<path id="svg_85_2_" class="st5" d="M176.9,397.7c-0.9,0-1.7-0.7-1.7-1.7l0,0v-69.6c0-5.8-4.6-10.6-10.3-10.6h-46.7
			c-5.8,0-10.3,4.8-10.3,10.6V396c0,0.9-0.7,2-1.7,2s-2-0.7-2-1.7c0,0,0,0,0-0.3v-69.6c0-7.7,6.2-14.3,14.1-14.3h46.7
			c7.7,0,14.1,6.2,14.1,14.3V396C178.9,396.9,178,397.7,176.9,397.7L176.9,397.7"/>
		<path id="svg_86_2_" class="st6" d="M188.6,317.3h-85.4c-1.7,0-3.2-1.5-3.2-3.2c0-1.7,1.5-3.2,3.2-3.2h85.4c1.7,0,3.2,1.5,3.2,3.2
			C191.8,315.9,190.6,317.3,188.6,317.3"/>
		<path id="svg_87_2_" class="st4" d="M186.2,312c-0.9,0-2-0.7-2-1.7l0,0v-22.7c0-4.8-3.8-8.8-8.9-8.8H173c-0.9,0-2-0.7-2-1.7l0,0
			c0-0.9,0.7-1.7,2-1.7h2.4c7,0,12.6,5.6,12.6,12.3v22.7C188.1,311.2,187.2,312,186.2,312"/>
		<path id="svg_88_2_" class="st7" d="M174.6,381.3c0,0-2.7,15.9,0.5,17.2c2.9,0.9,39.4,1.7,42.3-0.5c4.8-3.6-21.1-9.4-27.1-17.6
			L174.6,381.3"/>
		<path id="svg_89_2_" class="st1" d="M127.2,192.8c0,0-23.2,4.6-27.1,7.3c-3.8,2.9,12.1,26.8,13.5,34.4c1.5,7.6,0.7,27.9-2,33.2
			c-2.7,5.3-6.2,11.4-5,13.5c1.2,2.1,8.8,3.6,8.8,3.6c14.5-6.5,59.8-2.4,57.8-2.1c0,0,7.3-4.8,6.5-7.7s-7.7-7.7-8.2-12.1
			c-0.7-4.4-2.1-25.6-0.7-29.7c1.7-4.1,10.2-29.6,8.5-31.2c-2-2-25.9-7-25.9-7L127.2,192.8"/>
		<path id="svg_90_2_" class="st1" d="M99.6,201.1c-4.1,3.2-18.8,48.2-17.9,51.6c2.9,10.2,51.6,5.3,55.4,3.8
			c3.8-1.2,2.7-6.8,0.5-9.2c-0.9-1.2-30.2-2.7-31-4.6c-0.7-2,7.3-17,7.3-17S103.7,198.1,99.6,201.1 M179.5,202.2
			c9.8,27.2,14.6,33.2,17,32.6c3.3-0.7,3.3-13.4,10.2-15.9c0.9-0.4,3.6-1.1,4.8-3.4c1.1-1.7,0.8-3.7,0.8-3.7s0.4,3.1-1.2,6.1
			c-1.9,3.6-5.2,4-5.2,5.7c0,0.9,0.9,2.3,4.9,3.7c-1.6,0.7-3.6,1.7-4,3.4c-0.5,2,0.9,3.7,1.7,4.9c4.1,6.5,1.6,19.1-4.4,22.4
			c-3.2,1.7-7,0.5-9.9-0.5c-16.1-5.6-25.2-25.7-25.9-26.7l0,0C172,221.3,175.7,211.7,179.5,202.2L179.5,202.2z"/>
		<path id="svg_91_2_" class="st8" d="M217.1,209.2c0,0,0.7-5.8,2-9.7c1.2-3.8,5.3-5,9.4-9.9c2.4-2.9,2.4,1.5-0.9,6.8
			c-2,2.9,8.8-4.1,17-4.6c6.2-0.3-0.5,2.7-0.7,5c-0.3,2.1-0.3,7.7-3.2,8.9C233.2,208.5,227,216,227,216S219.1,218.1,217.1,209.2"/>
		<path id="svg_92_2_" class="st9" d="M142.9,244.8c-1.2,4.6-2.7,18.2-0.5,20.3c2.1,2.1,8.2,6.8,7.7,9.9c-0.5,3.2-2.7,5.8-2.7,5.8
			l4.4-0.3c0,0,3.2-6.1,3.2-8c-0.3-2-8.2-7-8.9-9.7c-0.7-2.7-0.3-18.2,0.3-19.9c0.3-1.2,1.2-21.1,0.5-29.3c-0.3-3.2-2.7-0.9-2.7-0.9
			S144,239.9,142.9,244.8"/>
		<path id="svg_93_2_" class="st7" d="M111.7,283c0,0-2.9,9.9-2.4,15.8c0.5,6.1,4.4,10.2,7.7,10.6c1.5,0.3,4.4,2,9.2,2.1
			c17,0.5,49.6-0.7,50.8,0.9c1.5,2.1-3.6,9.2-4.1,14.5c-0.7,5.3,0.7,34.9-0.3,37.3s-4.8,4.8-4.4,7.3c0.3,2.4,2.4,4.4,2.1,6.5
			c-0.7,7,2.4,8.9,4.6,9.7c2,0.9,13.1-6.2,15.5-6.2s5.3-9.2,4.8-12.3c-0.5-2.9-4.1-8.8-3.2-11.8c5.8-21.5,24.9-56.6,19.9-64.3
			c-3.6-5.8-24.7-8.9-36.7-10.2C162.7,281.2,122.3,273.3,111.7,283"/>
		<path id="svg_94_2_" class="st10" d="M114.9,303.8c0.9,2.4,8.2,34.9,11.1,49.3c0.5,3.2-0.5,6.8-0.3,10.3c0.3,3.6,4.1,8.9,2.9,11.4
			c-2.7,5.6,2,9.4,3.4,10.3c1.5,0.9,7.7-13.1,14.5-7.3c6.8,5.8,5.3-7.3,4.1-9.9c-1.2-2.4,0.3-6.5,0-9.7c-0.3-3.2-5.3-8-5.8-11.7
			c-0.5-3.4,2-37.8-2-50.5C137.8,280,105.6,278.3,114.9,303.8"/>
		<path id="svg_95_2_" class="st7" d="M132,379.8c0,0,0.3,6.5-1.5,8.8c-1.7,2.4-4.8,7.3-4.4,8.8c0.5,1.7,25.9,0.9,29.7,0.7
			c2.9-0.3,2.9-4.6,1.2-6.2c-1.7-1.7-6.8-6.5-7.7-13.3C148.4,371.8,134,368.7,132,379.8"/>
		<path id="svg_96_2_" class="st4" d="M113.1,287.6v23.7h3.6v-23.7c0-6.8-5.6-12.3-12.6-12.3h-2.4c-0.9,0-2,0.7-2,1.7l0,0
			c0,0.9,0.7,1.7,2,1.7h2.4C109.3,278.9,113.1,282.7,113.1,287.6"/>
		<path id="svg_97_2_" class="st9" d="M142.6,189.8c-9.4-1.2-15.8,1.7-16.2,4.1c-1.2,4.8,4.6,20.8,5.6,18.8s1.2-6.1,3.4-6.5
			c2.1-0.5,7.3,8.2,9.7,8.5c2.4,0.3,7-9.9,8.8-10.3c1.7-0.5,1.7,7,2.9,6.5c1.2-0.3,3.2-10.9,2.4-12.1
			C156,194.6,151.9,191,142.6,189.8"/>
		<path id="svg_98_2_" class="st11" d="M128.4,195.1c0.9-2,4.4-6.2,4.4-11.1c0.3-5,11.7,0.9,20.6,2.1c0,0-0.5,9.2,0.7,11.8
			c1.2,2.7-8,13.1-9.2,13.1C144,210.8,127.3,197,128.4,195.1"/>
		<path id="svg_99_2_" class="st11" d="M165.1,187.6c3.4-2,0-39.3-2.7-43.4c-2.4-4.1-37.3,17-29.3,38.2
			C134.4,185.5,162,189.3,165.1,187.6"/>
		<path id="svg_100_2_" class="st12" d="M145.1,158.5c-3.6,7.7,0.9,12.6,6.1,14.3c5,1.5,11.7-3.2,15-0.9c3.2,2.1,4.8,13.8,2.9,15.5
			c-2,1.7-17.6,2.1-20.6,0.5c-2.9-1.6-8.5-0.9-6.2-13.3c1.2-6.2-2.9-11.4-5.8-8.9c-3.8,3.4-1.5,19.1-3.6,18.4
			c-5-1.2-15.8-36.1-9.4-43.5c8-9.7,46-9.9,47-0.7C171.4,148.9,149.9,147.9,145.1,158.5"/>
		<path id="svg_101_2_" class="st11" d="M162.7,249.3c3.4,1.2,2.7-0.5,0.7-2.1c-3.2-2.4-9.2-5.3-10.6-5.6c-2.4-0.3-8.8,3.4-13.8,4.8
			c1.7,3.4,1.7,6.8-0.5,10.2c9.7,1.7,16.2-2.7,17.6-3.6c1.5-0.9,8.2,3.2,8.9,2.1C165.8,254.4,161.3,248.9,162.7,249.3"/>
		<path id="svg_1" class="st13" d="M207.6,256.2h-53.7c-4.6,0-8.4-3.7-8.4-8.4v-32.5c0-4.6,3.7-8.4,8.4-8.4h53.7
			c4.6,0,8.4,3.7,8.4,8.4v32.5C215.9,252.3,212.2,256.2,207.6,256.2z"/>
		<circle id="svg_39" class="st1" cx="180.3" cy="232.2" r="6.5"/>
	</g>
	<g id="Indian_guy">
		<path id="svg_83_1_" class="st4" d="M449.9,312.5l-65.1,1.5l5.8-76.3c0,0,61.9-4.6,60.8,4.8C448.7,263.9,449.9,312.5,449.9,312.5"
			/>
		<path id="svg_84_1_" class="st5" d="M446.1,312.5L381,314l5.8-76.3c0,0,61.9-4.6,60.8,4.8C444.9,263.9,446.1,312.5,446.1,312.5"/>
		<path id="svg_85_1_" class="st5" d="M375.1,397.2L375.1,397.2c-0.9,0-2-0.7-2-1.7v-69.6c0-8,6.2-14.3,14.1-14.3h46.7
			c7.7,0,14.1,6.5,14.1,14.3v69.6c0,0.3,0,0.3,0,0.3c0,0.9-0.9,1.7-2,1.7c-1.1,0-1.7-0.9-1.7-2v-69.6c0-5.8-4.6-10.6-10.3-10.6
			h-46.7c-5.8,0-10.3,4.8-10.3,10.6v69.6l0,0C376.9,396.5,376.2,397.2,375.1,397.2"/>
		<path id="svg_86_1_" class="st6" d="M363.6,316.8c-2,0-3.2-1.5-3.2-3.2c0-1.7,1.5-3.2,3.2-3.2H449c1.7,0,3.2,1.5,3.2,3.2
			c0,1.7-1.5,3.2-3.2,3.2H363.6"/>
		<path id="svg_87_1_" class="st4" d="M366,311.5c-0.9,0-2-0.7-1.7-1.5v-22.7c0-6.8,5.6-12.3,12.6-12.3h2.4c1.2,0,2,0.7,2,1.7l0,0
			c0,0.9-0.9,1.7-2,1.7h-2.4c-5,0-8.9,3.8-8.9,8.8v22.7l0,0C368,310.8,366.9,311.5,366,311.5"/>
		<path id="svg_88_1_" class="st14" d="M377.6,380.7l-15.8-0.9c-6.1,8.2-32,14.1-27.1,17.6c2.9,2.1,39.4,1.5,42.3,0.5
			C380.3,396.6,377.6,380.7,377.6,380.7"/>
		<path id="svg_95_1_" class="st14" d="M420.2,379.3c-2-11.1-16.4-8-17.4-1.5c-0.9,6.8-6.1,11.7-7.7,13.3c-1.7,1.7-1.7,6.1,1.2,6.2
			c3.8,0.3,29.3,0.9,29.7-0.7c0.5-1.5-2.7-6.2-4.4-8.8C420,385.8,420.2,379.3,420.2,379.3"/>
		<path id="svg_89_1_" class="st1" d="M425,192.2l-26.1,2c0,0-24,5-25.9,7c-1.7,1.7,6.8,27.1,8.5,31.2c1.5,4.1,0,25.5-0.7,29.7
			c-0.5,4.4-7.6,9.2-8.2,12.1c-0.7,2.9,6.5,7.7,6.5,7.7c-2-0.3,43.4-4.4,57.8,2.1c0,0,7.6-1.5,8.8-3.6c1.2-2.1-2.4-8.2-5-13.5
			c-2.7-5.3-3.4-25.6-2-33.2c1.5-7.6,17.4-31.4,13.5-34.4C448.2,196.9,425,192.2,425,192.2"/>
		<path id="svg_90_1_" class="st1" d="M452.6,200.7c-4.1-3.2-14.3,24.7-14.3,24.7s8,15,7.3,17c-0.7,2-30,3.4-31,4.6
			c-2.1,2.4-3.4,8,0.5,9.2c3.8,1.5,52.5,6.2,55.4-3.8C471.6,248.9,456.7,203.8,452.6,200.7 M372.7,201.6
			c6.1-4.4,11.1,28.8,11.1,28.8s-24,25.5-25.9,26.7c-2,1.2-8.2,0.5-9.9,0.5c-0.9,0-10.6-10.6-16.7-22.7c-0.7-1.7-2-8.8-2.7-10.2
			c-1.7-4.6-3.8-7.3-4.8-8.5c-2.4-3.2,9.7-12.3,12.6-7.7c0.5,0.9,2.4,4.4,4.4,6.5c1.2,1.5,3.8,2,4.8,3.4c5.3,8,8.8,16.7,10.2,15.9
			C358.3,233.4,368.4,204.8,372.7,201.6"/>
		<path id="svg_91_1_" class="st15" d="M335.1,208.7c-2,8.9-9.7,7-9.7,7s-6.2-7.6-13.8-10.3c-2.9-1.2-2.9-6.8-3.2-8.9
			c-0.3-2.4-7-5.3-0.7-5c8.2,0.5,18.8,7.6,17,4.6c-3.4-5.3-3.4-9.7-0.9-6.8c4.1,4.8,8.2,6.1,9.4,9.9
			C334.3,202.8,335.1,208.7,335.1,208.7"/>
		<path id="svg_92_1_" class="st16" d="M409.4,244.2c-1.2-4.8-1.2-32-1.2-32s-2.4-2.1-2.7,0.9c-0.7,8.2,0.3,28.1,0.5,29.3
			c0.5,1.7,0.9,17.2,0.3,19.9c-0.7,2.7-8.8,7.7-8.9,9.7c0,2,3.2,8,3.2,8l4.4,0.3c0,0-2.1-2.7-2.7-5.8c-0.5-3.2,5.6-7.7,7.7-9.9
			C412.1,262.3,410.5,248.9,409.4,244.2"/>
		<path id="svg_97_1_" class="st16" d="M409.6,189.3c-9.2,1.2-13.3,4.8-16.4,8.9c-0.7,1.2,1.2,11.8,2.4,12.1c1.2,0.5,1.2-7,2.9-6.5
			c1.7,0.5,6.2,10.6,8.8,10.3c2.4-0.3,7.6-8.9,9.7-8.5c2.1,0.4,2.4,4.6,3.4,6.5c0.9,2,6.8-14.1,5.6-18.8
			C425.3,191,419,188.1,409.6,189.3"/>
		<path id="svg_93_1_" class="st17" d="M440.5,282.4c-10.6-9.7-51.1-1.7-63.7-0.3c-12.1,1.2-33.2,4.4-36.7,10.2
			c-5,7.7,14.1,42.8,19.9,64.3c0.9,3.2-2.7,8.9-3.2,11.8c-0.5,3.2,2.4,12.3,4.8,12.3c2.4,0,13.5,7.3,15.5,6.2
			c2.1-0.7,5.3-2.7,4.6-9.7c-0.3-2.1,2-4.1,2.1-6.5c0.5-2.4-3.4-4.8-4.4-7.3c-0.9-2.4,0.5-32-0.3-37.3c-0.5-5.3-5.6-12.3-4.1-14.5
			c1.2-1.7,33.8-0.5,50.8-0.9c4.8-0.3,7.7-2,9.2-2.1c3.4-0.5,7.3-4.6,7.7-10.6C443.4,292.4,440.5,282.4,440.5,282.4"/>
		<path id="svg_94_1_" class="st18" d="M437.3,303.3c9.2-25.5-22.9-23.7-28.1-7.6c-3.8,12.9-1.5,47.2-2,50.5
			c-0.5,3.6-5.6,8.5-5.8,11.7c-0.3,3.2,1.2,7.3,0,9.7c-1.2,2.7-2.7,15.8,4.1,9.9c6.8-5.8,13.1,8.2,14.5,7.3
			c1.5-0.9,6.1-4.8,3.4-10.3c-1.2-2.4,2.7-7.7,2.9-11.4c0.3-3.6-0.7-7.3-0.3-10.3C429.1,338.1,436.4,305.6,437.3,303.3"/>
		<path id="svg_96_1_" class="st4" d="M439.1,287.1c0-4.8,3.8-8.8,8.9-8.9h2.4c1.2,0,2-0.7,2-1.7l0,0c0-0.9-0.9-1.7-2-1.7H448
			c-7,0-12.6,5.6-12.6,12.3v23.7h3.6v-23.7"/>
		<path id="svg_98_1_" class="st15" d="M423.8,194.6c0.9,2-15.8,15.8-16.4,15.9c-1.2,0-10.3-10.3-9.2-13.1
			c1.2-2.8,0.7-11.8,0.7-11.8c8.9-1.2,20.3-7.3,20.6-2.1C419.4,188.4,422.9,192.8,423.8,194.6"/>
		<path id="svg_99_1_" class="st15" d="M387.1,187.2c3.2,1.7,30.8-2.1,32-5c8-21.4-26.8-42.3-29.3-38.2
			C387.1,147.9,383.6,185.2,387.1,187.2"/>
		<path id="svg_100_1_" class="st19" d="M407.1,158.1c-4.8-10.6-26.4-9.7-25.2-18.8c0.9-9.2,39-8.9,47,0.7
			c6.2,7.6-4.4,42.3-9.4,43.5c-2.1,0.7,0.3-15-3.6-18.4c-2.9-2.4-7,2.7-5.8,8.9c2.1,12.3-3.4,11.7-6.2,13.3
			c-2.8,1.6-18.6,1.2-20.6-0.5c-2-1.7-0.3-13.3,2.9-15.5c3.4-2.1,9.9,2.4,15,0.9C406.2,170.7,410.8,165.8,407.1,158.1"/>
		<path id="svg_101_1_" class="st15" d="M389.5,248.9c1.5-0.5-3.2,5-2.4,5.8c0.7,0.9,7.6-3.2,8.9-2.1c1.5,0.9,8,5.3,17.6,3.6
			c-2.1-3.4-2.1-6.8-0.5-10.2c-5-1.5-11.4-5-13.8-4.8c-1.5,0.3-7.6,3.2-10.6,5.6C386.8,248.3,386.1,250.1,389.5,248.9"/>
		<path id="laptop" class="st13" d="M400.3,256.2h-47.6c-2.3,0-4.1-1.9-4.1-4.1v-30.9c0-2.3,1.9-4.1,4.1-4.1h47.6
			c2.3,0,4.1,1.9,4.1,4.1v30.8C404.4,254.3,402.6,256.2,400.3,256.2z"/>
		<circle id="laptop_logo" class="st1" cx="376.2" cy="237.1" r="5.2"/>
	</g>
	<g id="table">
		<path id="svg_56" class="st4" d="M45,409.6h-2.8c-0.8,0-1.7-0.7-1.7-1.9V264c0-0.7,0.5-1.3,1-1.3h3.8c0.6,0,1,0.6,1,1.3v143.7
			C46.8,408.9,46,409.6,45,409.6 M456.9,409.6h-2.8c-0.8,0-1.7-0.7-1.7-1.9V264c0-0.7,0.5-1.3,1-1.3h3.8c0.6,0,1,0.6,1,1.3v143.7
			C458.6,408.9,457.7,409.6,456.9,409.6"/>
		<path id="svg_102" class="st6" d="M497,256.2H3c-1.7,0-3,1.6-3,3.7s1.3,3.7,3,3.7h494c1.7,0,3-1.6,3-3.7S498.5,256.2,497,256.2"/>
	</g>
</g>
<g>
	<path class="st0" d="M101.5,76.1c6.3,7.4,13.6,14.3,13.3,21.1c-0.3,6.8-8.3,13.3-16,15c-7.8,1.7-15.3-1.5-25.3-4.4
		c-9.9-3-22.3-5.7-26.6-13.5S46.3,73.7,54,66c7.7-7.7,19.3-10.3,27.7-7.7C90.1,60.9,95.2,68.7,101.5,76.1z"/>
</g>
<g>
	<path class="st0" d="M60.2,137.3c6.7,7.2,14.6,14.6,13.5,20.1c-1.1,5.6-11.2,9.2-19.3,10.9c-8.2,1.6-14.4,1.2-21.3-1
		c-6.9-2.2-14.3-6.1-15.7-11.4c-1.3-5.4,3.6-12.3,8.8-19.2c5.3-7,10.9-13.9,16.5-13.8C48.2,122.9,53.6,130,60.2,137.3z"/>
</g>
<path class="st2" d="M289.9,97v-2c0-1.1-0.9-2-2-2H253v-5h9c2.2,0,4-1.8,4-4V68.1c0-2.2-1.8-4-4-4H238c-2.2,0-4,1.8-4,4V84
	c0,2.2,1.8,4,4,4h9v5h-34.9c-1.1,0-2,0.9-2,2v2c0,1.1,0.9,2,2,2h13v5h-7c-2.2,0-4,1.8-4,4v15.9c0,2.2,1.8,4,4,4H238c2.2,0,4-1.8,4-4
	V108c0-2.2-1.8-4-4-4h-7v-5h37.9v5h-7c-2.2,0-4,1.8-4,4v15.9c0,2.2,1.8,4,4,4h19.9c2.2,0,4-1.8,4-4V108c0-2.2-1.8-4-4-4h-7v-5h13
	C289,99,289.9,98.1,289.9,97z M242,80.1v-8H258v8H242z M234.1,119.9h-12v-8h12V119.9z M277.9,119.9h-12v-8h12V119.9z"/>
</svg>
